<?xml version="1.0" encoding="utf-8"?>
<svg xmlns="http://www.w3.org/2000/svg" clip-rule="evenodd" fill-rule="evenodd" stroke-linejoin="round" stroke-miterlimit="2" viewBox="0 0 460 120">
  <g fill="#fff" fill-rule="nonzero">
    <path d="m0 33.058c-.414 0-.828.034-1.242.103s-.852.103-1.311.103c-.828 0-1.508-.471-2.036-1.414-.53-.942-.794-2.288-.794-4.038 0-6.666.307-13.333.514-19.996.136-4.352 1.425-7.912-.101-12.074-.185-.504-.541-.871-1.069-1.101-.529-.229-1.138-.345-1.828-.345-.149 0-.29.021-.433.036l-.006-.064c-4.196.908-7.748 2.487-10.53 4.263-5.619-4.288-13.32-4.634-19.747-1.979-3.967 1.639-7.546 5.495-7.546 10.005 0 1.932.598 3.772 1.795 5.521 4.382 6.41 13.114 6.097 19.256 9.721 1.953 1.154 3.812 3.129 3.49 5.375-.584 4.077-6.461 4.987-9.703 4.987-2.393 0-4.394-.495-6.004-1.485-1.611-.988-2.738-2.426-3.382-4.312-.138-.506-.552-1.024-1.242-1.553s-1.358-.794-2.001-.794c-1.243 0-2.14.288-2.692.862-.552.576-.828 1.485-.828 2.726 0 1.795.655 3.451 1.967 4.97 4.02 4.655 10.97 6.586 16.922 5.832 4.524-.574 10.056-2.844 12.615-6.833 2.598-4.049 1.829-9.413-1.392-12.847-2.197-2.343-5.175-3.806-8.203-4.876-3.029-1.069-6.174-1.796-9.173-2.945-4.305-1.652-5.833-5.867-1.081-8.292 2.323-1.186 5.147-1.556 7.713-1.152 1.697.268 2.863.877 3.928 1.714-.379.495-.692.976-.928 1.43-1.797 3.46 1.463 5.922 5.655 4.524 4.191-1.397 3.523-5.727 3.523-5.727.929-1.624 2.603-2.347 4.198-2.646-.003 1.527.149 2.917.113 5.031-.049 2.95-.138 5.897-.287 8.843-.184 3.635-.276 8.074-.276 13.32 0 2.439.414 4.474 1.242 6.107.828 1.634 1.874 2.83 3.14 3.589 1.265.759 2.519 1.139 3.762 1.139 1.748 0 3.14-.311 4.175-.932s1.553-1.484 1.553-2.588c0-.553-.173-1.058-.518-1.519-.345-.459-.749-.689-1.208-.689" transform="matrix(2.04346 0 0 2.0192 96.9418 11.574)"/>
    <path d="m0-2.198c-.978.13-1.962.133-2.947.131-1.023-.002-3.09-.524-3.992-.152-.582.24-1.606.89-1.606 2.464 0 1.892 2.122 2.598 2.712 2.758 4.83.4 10.835 1.099 14.353-3.06 3.99-4.715.889-12.51-4.679-14.188-12.22-3.682-23.591 7.895-19.47 20.08.025.073.05.147.076.221 1.477 4.166 4.774 7.208 9.03 8.43 4.335 1.243 9.7.766 13.676-1.425 1.333-.735 2.002-1.68 2.002-2.828 0-.83-.232-1.507-.69-2.036-.461-.53-1.13-.795-2.002-.795-.737 0-1.68.208-2.831.621-3.098 1.113-6.952 1.289-9.883-.403-3.655-2.108-4.198-6.902-3.103-10.642.849-2.898 3.363-5.268 6.323-5.899 2.417-.515 7.838.711 7.08 4.195-.39 1.794-2.485 2.321-4.049 2.528" transform="matrix(2.04346 0 0 2.0192 135.632 59.3371)"/>
    <path d="m0-2.198c-.978.13-1.962.133-2.947.131-1.023-.002-3.09-.524-3.992-.152-.582.24-1.606.89-1.606 2.464 0 1.892 2.122 2.598 2.712 2.758 4.83.4 10.835 1.099 14.353-3.06 3.99-4.715.889-12.51-4.679-14.188-12.22-3.682-23.591 7.895-19.47 20.08.025.073.05.147.076.221 1.477 4.166 4.774 7.208 9.03 8.43 4.335 1.243 9.7.766 13.676-1.425 1.333-.735 2.002-1.68 2.002-2.828 0-.83-.232-1.507-.69-2.036-.461-.53-1.13-.795-2.002-.795-.737 0-1.68.208-2.831.621-3.098 1.113-6.952 1.289-9.883-.403-3.655-2.108-4.198-6.902-3.103-10.642.849-2.898 3.363-5.268 6.323-5.899 2.417-.515 7.838.711 7.08 4.195-.39 1.794-2.485 2.321-4.049 2.528" transform="matrix(2.04346 0 0 2.0192 193.549 59.3371)"/>
    <path d="m0-2.198c-.978.13-1.963.133-2.947.131-1.023-.002-3.09-.524-3.991-.152-.583.24-1.608.89-1.608 2.464 0 1.892 2.123 2.598 2.714 2.758 4.829.4 10.834 1.099 14.353-3.06 3.989-4.715.888-12.51-4.68-14.188-12.22-3.682-23.591 7.895-19.47 20.08.025.073.05.147.075.221 1.478 4.166 4.776 7.208 9.032 8.43 4.334 1.243 9.699.766 13.675-1.425 1.332-.735 2.001-1.68 2.001-2.828 0-.83-.231-1.507-.689-2.036-.461-.53-1.13-.795-2.002-.795-.737 0-1.68.208-2.831.621-3.099 1.113-6.951 1.289-9.884-.403-3.654-2.108-4.197-6.902-3.102-10.642.849-2.898 3.363-5.268 6.323-5.899 2.417-.515 7.838.711 7.08 4.195-.39 1.794-2.486 2.321-4.049 2.528" transform="matrix(2.04346 0 0 2.0192 342.314 59.3371)"/>
    <path d="m0-8.551c-.3.966-.932 1.956-1.897 2.967-1.29 1.427-3.245 2.139-5.867 2.139-.875 0-1.852-.286-2.933-.862-1.081-.575-1.738-1.3-1.967-2.174 0-3.726.114-6.349.346-7.868.321-1.931 1.069-3.461 2.242-4.589 1.174-1.127 2.703-1.691 4.59-1.691.828 0 1.701.265 2.622.794.92.53 1.702 1.357 2.346 2.485.644 1.127.966 2.519.966 4.175 0 2.116-.149 3.657-.448 4.624m-10.041-16.908c-1.656.598-2.968 1.587-3.934 2.967-.598-1.104-1.38-2.012-2.346-2.726-.967-.713-1.933-1.069-2.899-1.069s-1.76.253-2.381.758c-.621.507-.932 1.128-.932 1.864 0 .69.092 1.265.277 1.725.807 2.029 2.235 3.44 2.673 5.697.425 2.19.286 4.454.254 6.671-.059 3.992-.116 8.012-.443 11.994-.276 3.357-.507 7.015-.69 10.972 0 1.657.264 2.934.794 3.831.528.897 1.621 1.346 3.277 1.346.829 0 1.588-.242 2.278-.725 2.227-1.559.69-7.062.69-9.351 0-2.301.16-5.016.484-8.144.689.46 1.563.887 2.622 1.277 4.156 1.538 9.228-.003 12.493-2.81 5.995-5.154 6.931-15.84 1.135-21.515-3.581-3.506-8.75-4.425-13.352-2.762" transform="matrix(2.04346 0 0 2.0192 263.479 82.5015)"/>
    <path d="m0 7.245c1.561.971 4.202.476 5.665-.465.966-.621 1.449-1.46 1.449-2.518 0-1.141-.735-2.302-1.783-3.181-1.64-1.372-4.045-2.052-5.608-.877-1.162.874-1.265 2.921-1.191 4.23.062 1.098.535 2.231 1.468 2.811" transform="matrix(2.04346 0 0 2.0192 286.482 4.48221)"/>
    <path d="m0-27.819c-.786-1.133-2.777-1.455-4.065-1.455-3.414.001-2.578 3.988-2.444 6.099.166 2.634.249 5.273.288 7.912.062 4.134.016 8.271.016 12.422 0 1.288.265 2.231.794 2.829 1.298 1.467 4.039.991 5.452 0 .851-.598 1.276-1.334 1.276-2.208 0-7.828-.29-15.807-.808-23.616-.046-.689-.115-1.415-.509-1.983" transform="matrix(2.04346 0 0 2.0192 298.609 88.2425)"/>
    <path d="m0 27.932c-.3-.414-.771-.62-1.415-.62-2.249 0-3.906 2.026-6.274.551-.917-.572-1.521-1.548-1.852-2.576-.915-2.838-.846-6.275-.846-9.224 0-2.097.069-4.034.203-5.815.244-.026.487-.051.729-.075 3.217-.106 5.628-.35 7.212-.736 1.609-.321 2.415-1.38 2.415-3.175 0-1.285-1.133-1.957-2.288-2.147-1.401-.232-2.991.003-4.405.077-1.29.093-2.302.138-3.038.138.414-2.3.403-9.753-.034-10.352-.438-.598-1.255-.898-2.45-.898-1.223 0-2.619.417-3.294 1.515-.234.38-.563 5.249-.85 10.473-1.893.399-4.085 1.013-6.44 1.953-.092-.088-.185-.175-.279-.261-.127-.138-.26-.274-.404-.411-.548-.521-.947-.763-1.234-.806-.773-.475-1.539-.823-2.143-.976-3.779-.962-8.209-.684-11.807.805-2.897 1.199-5.36 3.685-5.36 6.963 0 1.888.541 3.429 1.622 4.624 2.093 2.316 4.943 3.396 7.896 4.151 2.441.623 6.604.836 8.246 3.002 2.58 3.401-3.435 4.394-5.482 4.353-2.643-.053-5.308-1.028-7.106-3.017-.875-1.104-1.703-1.657-2.484-1.657-.967 0-1.749.266-2.347.794-.598.53-.897 1.254-.897 2.174 0 1.474.656 2.761 1.967 3.864 4.449 3.747 10.987 4.229 16.362 2.499 5.709-1.836 7.937-7.512 5.39-11.798-.748-1.259-1.908-2.398-3.511-3.285-2.82-1.557-6.101-2.022-9.199-2.736-1.28-.295-2.767-.73-3.572-1.846-.212-.294-.37-.643-.354-1.004.022-.54.416-.988.83-1.333 1.994-1.663 5.241-2.193 7.543-.943.052.027.105.062.158.092-4.551 3.609 2.727 5.059 4.551 4.529.903-.262 1.947-1.201 2.506-2.487 1.292-.307 3.128-.716 5.236-1.109-.179 3.754-.298 6.74-.294 7.03.049 3.232.183 6.523 1.148 9.634.276.887.624 1.764 1.153 2.528 1.574 2.272 4.835 3.681 7.555 3.681 2.163 0 3.935-.425 5.315-1.277 1.38-.85 2.07-1.921 2.07-3.21 0-.689-.15-1.241-.448-1.656" transform="matrix(2.04346 0 0 2.0192 459.085 21.0865)"/>
  </g>
</svg>